<svg xmlns="http://www.w3.org/2000/svg" xmlns:xlink="http://www.w3.org/1999/xlink" width="200" height="200" viewBox="0 0 200 200"
    style="transform: rotate(0deg); object-fit: contain; max-width: 100%;">
    <circle cx="100" cy="100" r="1" stroke="rgba(255,255,255,0.7)"></circle>
    <line x1="180" y1="100" x2="190" y2="100" stroke="rgba(255,255,255,0.7)" stroke-width="3"></line>
    <line x1="179.69557584733963" y1="106.97245941981265" x2="189.6575228282571" y2="107.84401684728924"
        stroke="rgba(255,255,255,0.5)" stroke-width="1"></line>
    <line x1="178.78462024097664" y1="113.89185421335442" x2="188.63269777109872" y2="115.62833599002373"
        stroke="rgba(255,255,255,0.5)" stroke-width="1"></line>
    <line x1="177.27406610312545" y1="120.70552360820166" x2="186.93332436601617" y2="123.29371405922686"
        stroke="rgba(255,255,255,0.5)" stroke-width="1"></line>
    <line x1="175.17540966287268" y1="127.36161146605349" x2="184.57233587073176" y2="130.78181289931018"
        stroke="rgba(255,255,255,0.5)" stroke-width="1"></line>
    <line x1="172.504622962932" y1="133.80946093925596" x2="181.5677008332985" y2="138.03564355666293"
        stroke="rgba(255,255,255,0.5)" stroke-width="1"></line>
    <line x1="169.2820323027551" y1="140" x2="177.94228634059948" y2="145" stroke="rgba(255,255,255,0.5)"
        stroke-width="1"></line>
    <line x1="165.53216354311934" y1="145.8861149080837" x2="173.72368398600926" y2="151.62187927159414"
        stroke="rgba(255,255,255,0.5)" stroke-width="1"></line>
    <line x1="161.28355544951825" y1="151.42300877492315" x2="168.94399988070802" y2="157.85088487178854"
        stroke="rgba(255,255,255,0.5)" stroke-width="1"></line>
    <line x1="156.5685424949238" y1="156.5685424949238" x2="163.63961030678928" y2="163.63961030678928"
        stroke="rgba(255,255,255,0.5)" stroke-width="1"></line>
    <line x1="151.42300877492315" y1="161.28355544951825" x2="157.85088487178854" y2="168.94399988070802"
        stroke="rgba(255,255,255,0.5)" stroke-width="1"></line>
    <line x1="145.8861149080837" y1="165.53216354311934" x2="151.62187927159414" y2="173.72368398600926"
        stroke="rgba(255,255,255,0.5)" stroke-width="1"></line>
    <line x1="140" y1="169.28203230275508" x2="145" y2="177.94228634059948" stroke="rgba(255,255,255,0.5)"
        stroke-width="1"></line>
    <line x1="133.80946093925596" y1="172.504622962932" x2="138.03564355666293" y2="181.5677008332985"
        stroke="rgba(255,255,255,0.5)" stroke-width="1"></line>
    <line x1="127.3616114660535" y1="175.17540966287265" x2="130.78181289931018" y2="184.57233587073176"
        stroke="rgba(255,255,255,0.5)" stroke-width="1"></line>
    <line x1="120.70552360820166" y1="177.27406610312545" x2="123.29371405922686" y2="186.93332436601617"
        stroke="rgba(255,255,255,0.5)" stroke-width="1"></line>
    <line x1="113.89185421335443" y1="178.78462024097664" x2="115.62833599002374" y2="188.63269777109872"
        stroke="rgba(255,255,255,0.5)" stroke-width="1"></line>
    <line x1="106.97245941981265" y1="179.69557584733963" x2="107.84401684728923" y2="189.6575228282571"
        stroke="rgba(255,255,255,0.5)" stroke-width="1"></line>
    <line x1="100" y1="180" x2="100" y2="190" stroke="rgba(255,255,255,0.7)" stroke-width="3"></line>
    <line x1="93.02754058018733" y1="179.69557584733963" x2="92.15598315271076" y2="189.6575228282571"
        stroke="rgba(255,255,255,0.5)" stroke-width="1"></line>
    <line x1="86.10814578664558" y1="178.78462024097664" x2="84.37166400997627" y2="188.63269777109872"
        stroke="rgba(255,255,255,0.5)" stroke-width="1"></line>
    <line x1="79.29447639179833" y1="177.27406610312545" x2="76.70628594077313" y2="186.93332436601617"
        stroke="rgba(255,255,255,0.5)" stroke-width="1"></line>
    <line x1="72.63838853394651" y1="175.17540966287268" x2="69.21818710068982" y2="184.57233587073176"
        stroke="rgba(255,255,255,0.5)" stroke-width="1"></line>
    <line x1="66.19053906074404" y1="172.504622962932" x2="61.96435644333706" y2="181.5677008332985"
        stroke="rgba(255,255,255,0.5)" stroke-width="1"></line>
    <line x1="60.000000000000014" y1="169.2820323027551" x2="55.00000000000002" y2="177.94228634059948"
        stroke="rgba(255,255,255,0.5)" stroke-width="1"></line>
    <line x1="54.11388509191631" y1="165.53216354311934" x2="48.37812072840585" y2="173.72368398600923"
        stroke="rgba(255,255,255,0.5)" stroke-width="1"></line>
    <line x1="48.57699122507685" y1="161.28355544951825" x2="42.149115128211456" y2="168.94399988070802"
        stroke="rgba(255,255,255,0.5)" stroke-width="1"></line>
    <line x1="43.4314575050762" y1="156.5685424949238" x2="36.36038969321073" y2="163.63961030678928"
        stroke="rgba(255,255,255,0.5)" stroke-width="1"></line>
    <line x1="38.71644455048177" y1="151.42300877492318" x2="31.056000119291994" y2="157.85088487178854"
        stroke="rgba(255,255,255,0.5)" stroke-width="1"></line>
    <line x1="34.46783645688065" y1="145.88611490808367" x2="26.276316013990723" y2="151.62187927159414"
        stroke="rgba(255,255,255,0.5)" stroke-width="1"></line>
    <line x1="30.7179676972449" y1="140" x2="22.05771365940052" y2="145" stroke="rgba(255,255,255,0.5)"
        stroke-width="1"></line>
    <line x1="27.49537703706801" y1="133.80946093925596" x2="18.43229916670151" y2="138.03564355666296"
        stroke="rgba(255,255,255,0.5)" stroke-width="1"></line>
    <line x1="24.824590337127333" y1="127.36161146605352" x2="15.427664129268251" y2="130.7818128993102"
        stroke="rgba(255,255,255,0.5)" stroke-width="1"></line>
    <line x1="22.72593389687455" y1="120.70552360820167" x2="13.066675633983863" y2="123.29371405922689"
        stroke="rgba(255,255,255,0.5)" stroke-width="1"></line>
    <line x1="21.215379759023364" y1="113.89185421335442" x2="11.36730222890128" y2="115.62833599002373"
        stroke="rgba(255,255,255,0.5)" stroke-width="1"></line>
    <line x1="20.30442415266036" y1="106.97245941981265" x2="10.3424771717429" y2="107.84401684728924"
        stroke="rgba(255,255,255,0.5)" stroke-width="1"></line>
    <line x1="20" y1="100.00000000000001" x2="10" y2="100.00000000000001" stroke="rgba(255,255,255,0.7)"
        stroke-width="3"></line>
    <line x1="20.30442415266036" y1="93.02754058018736" x2="10.3424771717429" y2="92.15598315271079"
        stroke="rgba(255,255,255,0.5)" stroke-width="1"></line>
    <line x1="21.215379759023364" y1="86.10814578664557" x2="11.36730222890128" y2="84.37166400997626"
        stroke="rgba(255,255,255,0.5)" stroke-width="1"></line>
    <line x1="22.725933896874537" y1="79.29447639179834" x2="13.066675633983849" y2="76.70628594077313"
        stroke="rgba(255,255,255,0.5)" stroke-width="1"></line>
    <line x1="24.82459033712732" y1="72.63838853394651" x2="15.427664129268237" y2="69.21818710068982"
        stroke="rgba(255,255,255,0.5)" stroke-width="1"></line>
    <line x1="27.495377037067996" y1="66.19053906074406" x2="18.432299166701497" y2="61.96435644333707"
        stroke="rgba(255,255,255,0.5)" stroke-width="1"></line>
    <line x1="30.717967697244916" y1="59.99999999999999" x2="22.05771365940052" y2="54.99999999999999"
        stroke="rgba(255,255,255,0.5)" stroke-width="1"></line>
    <line x1="34.46783645688066" y1="54.11388509191631" x2="26.276316013990737" y2="48.37812072840585"
        stroke="rgba(255,255,255,0.5)" stroke-width="1"></line>
    <line x1="38.71644455048176" y1="48.57699122507686" x2="31.05600011929198" y2="42.14911512821147"
        stroke="rgba(255,255,255,0.5)" stroke-width="1"></line>
    <line x1="43.43145750507618" y1="43.4314575050762" x2="36.360389693210706" y2="36.36038969321073"
        stroke="rgba(255,255,255,0.5)" stroke-width="1"></line>
    <line x1="48.57699122507684" y1="38.71644455048177" x2="42.14911512821145" y2="31.056000119291994"
        stroke="rgba(255,255,255,0.5)" stroke-width="1"></line>
    <line x1="54.11388509191629" y1="34.467836456880676" x2="48.378120728405825" y2="26.27631601399075"
        stroke="rgba(255,255,255,0.5)" stroke-width="1"></line>
    <line x1="59.999999999999964" y1="30.71796769724493" x2="54.99999999999996" y2="22.057713659400548"
        stroke="rgba(255,255,255,0.5)" stroke-width="1"></line>
    <line x1="66.19053906074407" y1="27.495377037067996" x2="61.964356443337074" y2="18.432299166701497"
        stroke="rgba(255,255,255,0.5)" stroke-width="1"></line>
    <line x1="72.63838853394651" y1="24.82459033712732" x2="69.21818710068983" y2="15.427664129268237"
        stroke="rgba(255,255,255,0.5)" stroke-width="1"></line>
    <line x1="79.29447639179836" y1="22.725933896874537" x2="76.70628594077314" y2="13.066675633983849"
        stroke="rgba(255,255,255,0.5)" stroke-width="1"></line>
    <line x1="86.10814578664558" y1="21.215379759023364" x2="84.37166400997627" y2="11.36730222890128"
        stroke="rgba(255,255,255,0.5)" stroke-width="1"></line>
    <line x1="93.02754058018733" y1="20.30442415266036" x2="92.15598315271076" y2="10.3424771717429"
        stroke="rgba(255,255,255,0.5)" stroke-width="1"></line>
    <line x1="99.99999999999999" y1="20" x2="99.99999999999999" y2="10" stroke="rgba(255,255,255,0.7)" stroke-width="3">
    </line>
    <line x1="106.97245941981264" y1="20.30442415266036" x2="107.84401684728921" y2="10.3424771717429"
        stroke="rgba(255,255,255,0.5)" stroke-width="1"></line>
    <line x1="113.89185421335439" y1="21.21537975902335" x2="115.6283359900237" y2="11.367302228901266"
        stroke="rgba(255,255,255,0.5)" stroke-width="1"></line>
    <line x1="120.70552360820162" y1="22.725933896874523" x2="123.29371405922683" y2="13.066675633983849"
        stroke="rgba(255,255,255,0.5)" stroke-width="1"></line>
    <line x1="127.36161146605352" y1="24.824590337127333" x2="130.7818128993102" y2="15.427664129268251"
        stroke="rgba(255,255,255,0.5)" stroke-width="1"></line>
    <line x1="133.80946093925598" y1="27.49537703706801" x2="138.03564355666296" y2="18.43229916670151"
        stroke="rgba(255,255,255,0.5)" stroke-width="1"></line>
    <line x1="140" y1="30.717967697244916" x2="145" y2="22.05771365940052" stroke="rgba(255,255,255,0.5)"
        stroke-width="1"></line>
    <line x1="145.8861149080837" y1="34.46783645688066" x2="151.62187927159414" y2="26.276316013990737"
        stroke="rgba(255,255,255,0.5)" stroke-width="1"></line>
    <line x1="151.42300877492315" y1="38.716444550481754" x2="157.85088487178854" y2="31.056000119291966"
        stroke="rgba(255,255,255,0.5)" stroke-width="1"></line>
    <line x1="156.5685424949238" y1="43.43145750507618" x2="163.63961030678925" y2="36.360389693210706"
        stroke="rgba(255,255,255,0.5)" stroke-width="1"></line>
    <line x1="161.28355544951822" y1="48.57699122507683" x2="168.94399988070802" y2="42.149115128211434"
        stroke="rgba(255,255,255,0.5)" stroke-width="1"></line>
    <line x1="165.53216354311934" y1="54.11388509191628" x2="173.72368398600923" y2="48.37812072840582"
        stroke="rgba(255,255,255,0.5)" stroke-width="1"></line>
    <line x1="169.28203230275506" y1="59.999999999999964" x2="177.94228634059945" y2="54.99999999999996"
        stroke="rgba(255,255,255,0.5)" stroke-width="1"></line>
    <line x1="172.504622962932" y1="66.19053906074407" x2="181.5677008332985" y2="61.96435644333707"
        stroke="rgba(255,255,255,0.5)" stroke-width="1"></line>
    <line x1="175.17540966287268" y1="72.63838853394651" x2="184.57233587073176" y2="69.21818710068982"
        stroke="rgba(255,255,255,0.5)" stroke-width="1"></line>
    <line x1="177.27406610312545" y1="79.29447639179834" x2="186.93332436601617" y2="76.70628594077314"
        stroke="rgba(255,255,255,0.5)" stroke-width="1"></line>
    <line x1="178.78462024097664" y1="86.10814578664557" x2="188.63269777109872" y2="84.37166400997627"
        stroke="rgba(255,255,255,0.5)" stroke-width="1"></line>
    <line x1="179.69557584733963" y1="93.02754058018733" x2="189.6575228282571" y2="92.15598315271075"
        stroke="rgba(255,255,255,0.5)" stroke-width="1"></line>
    <polygon points="95,0 105,0 100,7" fill="red"></polygon>
</svg>